<svg xmlns="http://www.w3.org/2000/svg" width="24" height="24" viewBox="0 0 24 24">
    <g fill="none" fill-rule="evenodd">
        <path d="M0 0h24v24H0z"/>
        <path fill="#000" fill-rule="nonzero" d="M4.716 10.653C6.824 8.61 9.266 7.57 11.999 7.57c2.734 0 5.176 1.04 7.284 3.083l.943-1.086C18.342 7.186 15.634 6 12.008 6 8.38 6 5.668 7.186 3.774 9.569l.942 1.084zM12.008 5c4.09 0 7.178 1.431 9.266 4.294a.5.5 0 0 1-.027.622l-1.562 1.8a.5.5 0 0 1-.74.017C16.936 9.624 14.62 8.57 12 8.57s-4.935 1.054-6.946 3.163a.5.5 0 0 1-.74-.017l-1.56-1.799a.5.5 0 0 1-.027-.623C4.824 6.43 7.918 5 12.008 5zm.01 5.049c2.267 0 4.243.93 5.929 2.79a.5.5 0 0 1 .013.655l-1.497 1.798a.5.5 0 0 1-.73.042c-1.217-1.164-2.455-1.746-3.714-1.746s-2.494.582-3.707 1.744a.5.5 0 0 1-.73-.04l-1.497-1.798a.5.5 0 0 1 .013-.655c1.68-1.86 3.654-2.79 5.92-2.79zM8.017 14.25c1.27-1.094 2.609-1.662 4.003-1.662 1.394 0 2.735.569 4.01 1.663l.879-1.056c-1.429-1.444-3.043-2.146-4.89-2.146-1.845 0-3.457.702-4.881 2.145l.879 1.056zm4.29 4.74a.5.5 0 0 1-.7-.09L9.84 16.61a.5.5 0 0 1 .04-.657c.629-.635 1.335-.953 2.117-.953.783 0 1.49.318 2.12.953a.5.5 0 0 1 .042.657l-1.762 2.29a.5.5 0 0 1-.091.09zm.775-2.618A1.772 1.772 0 0 0 11.998 16c-.382 0-.736.117-1.079.37l1.082 1.405 1.08-1.403z"/>
    </g>
</svg>
