<svg xmlns="http://www.w3.org/2000/svg" width="24" height="24" viewBox="0 0 24 24">
    <g fill="none" fill-rule="evenodd">
        <path d="M0 0h24v24H0z"/>
        <path fill="#000" fill-rule="nonzero" d="M10.504 17.5a.5.5 0 1 1 0-1h3a.5.5 0 0 1 0 1h-3zm6.016.493a1.5 1.5 0 1 1 0-3 1.5 1.5 0 0 1 0 3zm0-1a.5.5 0 1 0 0-1 .5.5 0 0 0 0 1zm-9.02 1a1.5 1.5 0 1 1 0-3 1.5 1.5 0 0 1 0 3zm0-1a.5.5 0 1 0 0-1 .5.5 0 0 0 0 1zM4.5 14a.5.5 0 1 1 0-1h15a.5.5 0 1 1 0 1h-15zm.5 0v5h14v-5H5zm-1-1h16v6a1 1 0 0 1-1 1H5a1 1 0 0 1-1-1v-6zm-.5-7v2a.5.5 0 0 1-1 0V6a.5.5 0 0 1 1 0zm18 0v2a.5.5 0 1 1-1 0V6a.5.5 0 1 1 1 0zM4 19h4v1.5A1.5 1.5 0 0 1 6.5 22h-1A1.5 1.5 0 0 1 4 20.5V19zm1 1v.5a.5.5 0 0 0 .5.5h1a.5.5 0 0 0 .5-.5V20H5zm11-1h4v1.5a1.5 1.5 0 0 1-1.5 1.5h-1a1.5 1.5 0 0 1-1.5-1.5V19zm1 1v.5a.5.5 0 0 0 .5.5h1a.5.5 0 0 0 .5-.5V20h-2zM8.5 5.2c0-2.145 1.36-3.7 3.5-3.7 2.14 0 3.5 1.555 3.5 3.7 0 1.663-2.721 6.308-3.5 6.308-.779 0-3.5-4.645-3.5-6.308zm3.66 4.857c.307-.427.664-.98.995-1.543C13.978 7.108 14.5 5.865 14.5 5.2c0-1.62-.945-2.7-2.5-2.7-1.555 0-2.5 1.08-2.5 2.7 0 .665.522 1.908 1.345 3.314.33.564.688 1.116.995 1.543.057.079.11.151.16.217.05-.066.103-.138.16-.217zM12 6a1 1 0 1 1 0-2 1 1 0 0 1 0 2zm7.845 3.543c.103 1.83.155 2.984.155 3.46v.998h-1v-.106a1.497 1.497 0 0 1-.553.105H5.563c-.199 0-.39-.039-.563-.11V14H4v-.996c0-.522.062-1.857.186-4.004l.018.068.143-3.458C4.364 4.537 4.773 4 5.574 4h2.25a1 1 0 0 1-1 1h-1.25c-.183 0-.218.046-.228.651l-.282 6.828c0 .297.223.521.5.521h12.883a.504.504 0 0 0 .5-.517L18.687 5h-1.423a1 1 0 0 1-1-1h2.423a1 1 0 0 1 1 .965l.158 4.578z"/>
    </g>
</svg>
