<svg xmlns="http://www.w3.org/2000/svg" width="24" height="24" viewBox="0 0 24 24">
    <g fill="none" fill-rule="evenodd">
        <path d="M0 0h24v24H0z"/>
        <path fill="#000" fill-rule="nonzero" d="M20.451 8.983c-.005-.093-.113-.185-.267-.185l-4.94.045c-.149.001-.26.1-.261.18.003.647-.003 1.233-.024 1.373l-.027.186-.143.122c-.554.472-2.549.65-4.156.45-.704-.088-1.15-.225-1.398-.374l-.242-.144-.001-.282-.008-1.306c0-.038-.018-.076-.059-.112a.31.31 0 0 0-.208-.073l-4.945.025a.317.317 0 0 0-.206.075.153.153 0 0 0-.055.115c0 .123-.001.218-.005.445-.015 1.003.03 1.376.277 1.836.134.25.33.495.606.744 1.145 1.036 3.505 1.548 7.401 1.548h.221c4.058-.02 6.493-.555 7.647-1.622.146-.136.27-.27.373-.407.457-.602.519-1.066.437-2.373l-.001-.026-.016-.24zm1.014.177l.001.026c.096 1.533.008 2.188-.639 3.04-.14.184-.302.363-.49.537-1.392 1.287-4.03 1.867-8.321 1.887h-.226c-4.125 0-6.69-.555-8.072-1.806a3.797 3.797 0 0 1-.816-1.011c-.354-.659-.413-1.157-.396-2.319.004-.227.005-.32.005-.434a1.153 1.153 0 0 1 .377-.853c.238-.217.558-.34.881-.34l4.946-.024c.325 0 .633.113.872.324.252.222.396.529.397.856l.006.973c.171.05.423.102.767.146 1.174.145 2.688.041 3.221-.14.004-.243.007-.64.005-1.007.015-.655.583-1.167 1.252-1.172l4.944-.045c.667 0 1.233.48 1.27 1.123l.016.24zm-11.36-1.457a.5.5 0 0 1-.21-.978C10.598 6.575 11.3 6.5 12 6.5c.701 0 1.403.075 2.104.225a.5.5 0 0 1-.208.978A9.047 9.047 0 0 0 12 7.5c-.63 0-1.262.068-1.896.203zM9.09 5.767a.5.5 0 0 1-.18-.984C9.94 4.594 10.97 4.5 12 4.5c1.03 0 2.06.094 3.09.283a.5.5 0 0 1-.18.984A16.119 16.119 0 0 0 12 5.5c-.969 0-1.938.089-2.91.267zM8.068 3.77a.5.5 0 0 1-.136-.99A29.857 29.857 0 0 1 12 2.5c1.355 0 2.71.093 4.068.28a.5.5 0 0 1-.136.99A28.857 28.857 0 0 0 12 3.5c-1.31 0-2.62.09-3.932.27zm-.311 13.42a6.121 6.121 0 0 0-1.062-.433c-.386-.119-.702-.178-.95-.178a.705.705 0 0 0-.367.081.26.26 0 0 0-.133.236c0 .145.086.257.259.337.172.08.446.167.82.26.426.109.777.218 1.053.33.276.11.517.28.72.507.205.227.307.527.307.899 0 .377-.11.696-.332.957-.222.26-.52.455-.898.585-.377.129-.798.193-1.265.193a5.359 5.359 0 0 1-1.558-.236A4.538 4.538 0 0 1 3 20.08l.673-1.224c.305.237.678.438 1.118.6.44.163.82.244 1.136.244.195 0 .348-.033.457-.1a.318.318 0 0 0 .164-.287c0-.15-.089-.265-.267-.345a4.929 4.929 0 0 0-.83-.252c-.42-.098-.768-.2-1.044-.306a1.849 1.849 0 0 1-.716-.492c-.202-.222-.303-.514-.303-.875 0-.352.104-.658.311-.919.207-.26.5-.46.877-.6.377-.14.815-.21 1.316-.21.455 0 .907.059 1.355.175.45.116.84.27 1.175.461l-.665 1.24zm4.256-1.851c.622 0 1.184.121 1.688.364.503.243.898.577 1.182 1.004.285.426.428.905.428 1.437 0 .537-.143 1.021-.428 1.453-.284.431-.679.77-1.182 1.015a3.802 3.802 0 0 1-1.688.368c-.627 0-1.191-.123-1.692-.368a2.913 2.913 0 0 1-1.179-1.015 2.578 2.578 0 0 1-.427-1.453c0-.532.143-1.011.427-1.437.285-.427.678-.761 1.179-1.004.5-.243 1.065-.364 1.692-.364zm.026 1.34c-.265 0-.51.065-.738.194-.228.13-.409.306-.544.53a1.422 1.422 0 0 0-.203.749c0 .273.068.524.203.751a1.496 1.496 0 0 0 1.282.736 1.426 1.426 0 0 0 1.243-.732c.127-.225.19-.476.19-.755 0-.274-.063-.523-.19-.748a1.407 1.407 0 0 0-1.243-.725zm8.296.512a6.121 6.121 0 0 0-1.062-.434c-.385-.119-.702-.178-.95-.178a.705.705 0 0 0-.366.081.26.26 0 0 0-.134.236c0 .145.086.257.259.337.173.08.446.167.82.26.426.109.777.218 1.053.33.277.11.517.28.721.507.205.227.307.527.307.899 0 .377-.111.696-.333.957-.221.26-.52.455-.897.585-.377.129-.799.193-1.265.193a5.359 5.359 0 0 1-1.559-.236 4.538 4.538 0 0 1-1.35-.647l.673-1.224c.305.237.677.438 1.118.6.44.163.818.244 1.135.244.196 0 .348-.033.458-.1a.318.318 0 0 0 .164-.287c0-.15-.09-.265-.268-.345a4.929 4.929 0 0 0-.829-.252c-.42-.098-.768-.2-1.044-.306a1.849 1.849 0 0 1-.717-.492c-.201-.222-.302-.514-.302-.875 0-.352.104-.658.31-.919.208-.26.5-.46.877-.6.377-.14.816-.21 1.317-.21.454 0 .906.059 1.355.175.449.116.84.27 1.174.461l-.665 1.24z"/>
    </g>
</svg>
