<svg xmlns="http://www.w3.org/2000/svg" width="24" height="24" viewBox="0 0 24 24">
    <g fill="none" fill-rule="evenodd">
        <path d="M0 0h24v24H0z"/>
        <path fill="#000" fill-rule="nonzero" d="M6 12v2.585a2 2 0 0 0 .494 1.316l1.26 1.441A1 1 0 0 1 8 18v3h4v-3.062a1 1 0 0 1 .876-.992c4.059-.506 5.725-1.88 6.115-4.946H6zm1 9v-3l-1.26-1.441A3 3 0 0 1 5 14.585V12a1 1 0 0 1 1-1h13.013c.692 0 1.035.564.985 1-.422 3.653-2.474 5.374-6.998 5.938V21h6.5a.5.5 0 1 1 0 1h-17a.5.5 0 1 1 0-1H7zM6 10a1 1 0 0 0 1 1h1V6a1 1 0 0 0-1-1H6v5zM5 4h2a2 2 0 0 1 2 2v5a1 1 0 0 1-1 1H7a2 2 0 0 1-2-2V4zm.5-1a.5.5 0 0 0-.5.5V4h4v-.5a.5.5 0 0 0-.5-.5h-3zm0-1h3A1.5 1.5 0 0 1 10 3.5V4a1 1 0 0 1-1 1H5a1 1 0 0 1-1-1v-.5A1.5 1.5 0 0 1 5.5 2zM9 9.999a.5.5 0 0 1 0-1h10a.5.5 0 1 1 0 1H9z"/>
    </g>
</svg>
