<svg xmlns="http://www.w3.org/2000/svg" width="24" height="24" viewBox="0 0 24 24">
    <g fill="none" fill-rule="evenodd">
        <path d="M0 0h24v24H0z"/>
        <path fill="#000" fill-rule="nonzero" d="M16 3v1h2V3h-2zm-6 14v1H4v-1h6v-3H4v-1h6v1-1.077c0-1.486-.16-2.968-.477-4.42l-.07-.322c-.101-.463-.173-.642-.29-.8a.802.802 0 0 0-.333-.269C8.65 7.032 8.46 7 7.986 7h-1.97c-.475 0-.665.032-.845.112a.802.802 0 0 0-.334.268c-.116.16-.188.338-.29.804l-.07.324A20.817 20.817 0 0 0 4 12.939v7.375a.694.694 0 0 0 1.24.43l.3-.38h2.967l.3.386A.666.666 0 0 0 10 20.34V17zm10-3v-1.077c0-1.486-.16-2.968-.477-4.42l-.07-.322c-.101-.463-.173-.642-.29-.8a.802.802 0 0 0-.333-.269c-.18-.08-.37-.112-.844-.112h-1.97c-.475 0-.665.032-.845.112a.802.802 0 0 0-.334.268c-.116.16-.188.338-.29.804l-.07.324A20.817 20.817 0 0 0 14 12.939v7.375a.694.694 0 0 0 1.24.43l.3-.38h2.967l.3.386A.666.666 0 0 0 20 20.34V14h-6v-1h6v1zM16 2h2a1 1 0 0 1 1 1v1a1 1 0 0 1-1 1h-2a1 1 0 0 1-1-1V3a1 1 0 0 1 1-1zm.017 4h1.969c.644 0 .953.066 1.25.198.297.132.542.329.734.591.192.262.322.549.46 1.179l.07.322c.332 1.522.5 3.075.5 4.633v7.418a1.666 1.666 0 0 1-2.982 1.023h-1.993A1.694 1.694 0 0 1 13 20.314V12.94c0-1.561.168-3.118.5-4.644l.07-.324c.138-.633.269-.92.46-1.181.193-.263.438-.46.735-.592.297-.132.605-.198 1.252-.198zM14 18v-1h6v1h-6zm6 0v-1 1zM6 2h2a1 1 0 0 1 1 1v1a1 1 0 0 1-1 1H6a1 1 0 0 1-1-1V3a1 1 0 0 1 1-1zm0 1v1h2V3H6zm.017 3h1.969c.644 0 .953.066 1.25.198.297.132.542.329.734.591.192.262.322.549.46 1.179l.07.322c.332 1.522.5 3.075.5 4.633v7.418a1.666 1.666 0 0 1-2.982 1.023H6.025A1.694 1.694 0 0 1 3 20.314V12.94c0-1.561.168-3.118.5-4.644l.07-.324c.138-.633.269-.92.46-1.181.193-.263.438-.46.735-.592C5.062 6.066 5.37 6 6.017 6zM4 14v-1 1zm0 3v1-1z"/>
    </g>
</svg>
