<svg xmlns="http://www.w3.org/2000/svg" width="24" height="24" viewBox="0 0 24 24">
    <g fill="none" fill-rule="evenodd">
        <path d="M0 0h24v24H0z"/>
        <path fill="#000" fill-rule="nonzero" d="M21.654 11.266c1.085 1.345 1.107 3.786.184 5.45a4.496 4.496 0 0 1-.284.443 3.249 3.249 0 0 1-2.65 1.341l-12.86-.001c-1.17-.083-2.302-.538-3.212-1.671-1.72-2.146-1.76-6.062-.207-8.569.893-1.44 2.087-2.15 3.42-2.462 6.382-.454 10.239-.4 12.58.248 2.622.727 3.518 2.31 2.746 4.81a.503.503 0 0 1-.03.076c.108.1.213.21.313.335zm-3.296-4.257c-2.194-.608-5.974-.66-12.162-.227-1.018.243-1.987.82-2.72 2.004-1.34 2.163-1.306 5.617.137 7.416A3.353 3.353 0 0 0 6.08 17.5h12.823c.73 0 1.399-.324 1.844-.93.077-.108.151-.222.218-.34.737-1.33.72-3.334-.09-4.336a1.822 1.822 0 0 0-1.195-.687c-.542 0-1.11-.01-1.715-.028-.915-.028-1.746-.067-3.2-.146-3.75-.204-5.004-.235-6.351-.082-1.595.181-2.282.614-2.282 1.37 0 1.065 2.173 1.702 5.794 1.773a48.272 48.272 0 0 0 4.538-.148 53.675 53.675 0 0 0 1.677-.155.5.5 0 1 1 .117.993 54.67 54.67 0 0 1-1.717.159c-1.567.12-3.152.18-4.635.15-4.233-.082-6.774-.827-6.774-2.771 0-1.42 1.131-2.133 3.169-2.365 1.428-.162 2.698-.13 6.518.077 1.446.079 2.272.118 3.176.145.596.018 1.153.028 1.747.031.247.031.49.088.724.178.518-1.843-.085-2.819-2.108-3.379z"/>
    </g>
</svg>
