<svg xmlns="http://www.w3.org/2000/svg" width="24" height="24" viewBox="0 0 24 24">
    <g fill="none" fill-rule="evenodd">
        <path d="M0 0h24v24H0z"/>
        <path fill="#000" d="M9 19a1.5 1.5 0 1 1 0-3 1.5 1.5 0 0 1 0 3zm3-5a1.5 1.5 0 1 1 0-3 1.5 1.5 0 0 1 0 3zm3 5a1.5 1.5 0 1 1 0-3 1.5 1.5 0 0 1 0 3zM9.507 2a1 1 0 0 1-1 1H6a1 1 0 0 0-1 1v16a1 1 0 0 0 1 1h12a1 1 0 0 0 1-1V4a1 1 0 0 0-1-1h-2.453a1 1 0 0 1-1-1H18a2 2 0 0 1 2 2v16a2 2 0 0 1-2 2H6a2 2 0 0 1-2-2V4a2 2 0 0 1 2-2h3.507zm1.138 3.5l.844-3.5h1.791l-.89 2.355h1.558L10.99 9l1.057-3.5h-1.402z"/>
    </g>
</svg>
