<svg xmlns="http://www.w3.org/2000/svg" width="24" height="24" viewBox="0 0 24 24">
    <g fill="none" fill-rule="evenodd">
        <path d="M0 0h24v24H0z"/>
        <path fill="#000" fill-rule="nonzero" d="M4 5a1 1 0 0 0-1 1v12a1 1 0 0 0 1 1h16a1 1 0 0 0 1-1V6a1 1 0 0 0-1-1H4zm0-1h16a2 2 0 0 1 2 2v12a2 2 0 0 1-2 2H4a2 2 0 0 1-2-2V6a2 2 0 0 1 2-2zm0 1v2h1V5H4zm0 12v2h1v-2H4zM7 5v2h1V5H7zm0 12v2h1v-2H7zm3-12v2h1V5h-1zm0 12v2h1v-2h-1zm3-12v2h1V5h-1zm0 12v2h1v-2h-1zm3-12v2h1V5h-1zm0 12v2h1v-2h-1zm3-12v2h1V5h-1zm0 12v2h1v-2h-1zm-5.417-4.947a.5.5 0 0 0 0-.746l-1.75-1.563a.5.5 0 0 0-.833.373v3.126a.5.5 0 0 0 .833.373l1.75-1.563zM3 8h18V7H3v1zm0 9h18v-1H3v1z"/>
    </g>
</svg>
