<svg xmlns="http://www.w3.org/2000/svg" width="24" height="24" viewBox="0 0 24 24">
    <path fill="#3E3E52" fill-rule="evenodd" d="M7 8.263a1.016 1.016 0 0 1-.5-.877C6.503 4.285 8.031 2 12 2c3.97 0 5.498 2.287 5.5 5.385.001.38-.202.7-.5.878V8.5a5 5 0 0 1-3 4.584v.416h1a7 7 0 0 1 7 7v2H2v-2a7 7 0 0 1 7-7h1v-.416A5 5 0 0 1 7 8.5v-.237zm1 .057v.18a4 4 0 0 0 8 0v-.18c-.746-.295-1.244-.736-1.6-1.643-.572.477-1.337.743-2.4.703-1.063.04-1.829-.226-2.4-.703-.355.907-.852 1.348-1.6 1.643zm2 5.993v.187H9a6 6 0 0 0-6 6v1h3V20a.5.5 0 0 1 1 0v1.5h10V20a.5.5 0 0 1 1 0v1.5h3v-1a6 6 0 0 0-6-6h-1v-.145c0 .207-.052.423-.195.572-.37.382-.966.574-1.787.574-.729 0-1.288-.151-1.674-.454a.925.925 0 0 1-.344-.734zm1.98-7.933h.04c.952.039 1.514-.208 1.918-.643a.767.767 0 0 1 1.292.292c.272.855.58 1.148 1.172 1.375.066.025.098.003.098-.017C16.498 4.775 15.312 3 12 3 8.689 3 7.504 4.774 7.5 7.387c0 .02.032.042.096.017.595-.226.902-.519 1.174-1.376a.767.767 0 0 1 1.292-.29c.405.434.966.681 1.918.642z"/>
</svg>
