<svg xmlns="http://www.w3.org/2000/svg" width="24" height="24" viewBox="0 0 24 24">
    <g fill="none" fill-rule="evenodd">
        <path d="M0 0h24v24H0z"/>
        <path fill="#3E3E52" fill-rule="nonzero" d="M13.5 10.97a.5.5 0 1 1 1 0V16a.5.5 0 1 1-1 0v-5.03zm3 0a.5.5 0 1 1 1 0V16a.5.5 0 1 1-1 0v-5.03zM15.014 9.5a.5.5 0 1 1 1 0V16a.5.5 0 1 1-1 0V9.5zM13 18v-1h5v1h-5zm0 2h5V8h-5v12zm2-13V4.5a.5.5 0 1 1 1 0V7h2a1 1 0 0 1 1 1v13h-7V8a1 1 0 0 1 1-1h2zm-4 13h9.5a.5.5 0 1 1 0 1h-17a.5.5 0 1 1 0-1H5V9.535a1 1 0 0 1 .445-.832l4-2.667A1 1 0 0 1 11 6.87V20zm-1 0V6.869L6 9.535V20h4zM7.491 10H8.51c.271 0 .491.224.491.5s-.22.5-.491.5H7.49A.496.496 0 0 1 7 10.5c0-.276.22-.5.491-.5zm0 2H8.51c.271 0 .491.224.491.5s-.22.5-.491.5H7.49A.496.496 0 0 1 7 12.5c0-.276.22-.5.491-.5zm0 2H8.51c.271 0 .491.224.491.5s-.22.5-.491.5H7.49A.496.496 0 0 1 7 14.5c0-.276.22-.5.491-.5zm0 2H8.51c.271 0 .491.224.491.5s-.22.5-.491.5H7.49A.496.496 0 0 1 7 16.5c0-.276.22-.5.491-.5zm0 2H8.51c.271 0 .491.224.491.5s-.22.5-.491.5H7.49A.496.496 0 0 1 7 18.5c0-.276.22-.5.491-.5z"/>
    </g>
</svg>
