<svg xmlns="http://www.w3.org/2000/svg" width="20" height="20" viewBox="0 0 20 20">
    <g fill="none" fill-rule="evenodd">
        <path d="M0 0H24V24H0z" transform="translate(-2 -2)"/>
        <path fill="#747F8D" fill-rule="nonzero" d="M7.467 7.729c.196-.194.513-.192.707.004l3.694 3.737 3.694-3.737c.195-.196.511-.198.708-.004.196.194.198.51.004.707l-3.703 3.745 3.703 3.745c.172.175.19.444.054.638l-.058.07c-.197.193-.513.191-.708-.005l-3.695-3.737-3.693 3.737c-.194.196-.51.198-.707.004-.197-.194-.198-.51-.004-.707l3.701-3.745-3.701-3.745c-.173-.174-.19-.444-.054-.638zM12 21c4.97 0 9-4.03 9-9s-4.03-9-9-9-9 4.03-9 9 4.03 9 9 9zm0 1C6.477 22 2 17.523 2 12S6.477 2 12 2s10 4.477 10 10-4.477 10-10 10z" transform="translate(-2 -2)"/>
    </g>
</svg>
