<svg xmlns="http://www.w3.org/2000/svg" width="79" height="102" viewBox="0 0 79 102">
    <g fill="none" fill-rule="evenodd">
        <g fill-rule="nonzero">
            <g>
                <path fill="#83E2B5" d="M15.267 41.035c.379 0 .741-.155 1.008-.43.268-.274.417-.646.417-1.034V23h7.614v16.571c0 .808.639 1.464 1.427 1.464H29L20.5 51 12 41.035h3.267z" transform="translate(-264.000000, -780.000000) translate(264.000000, 780.000000)"/>
                <path fill="#FFF" d="M6.4 79c-1.827-.003-3.326-1.326-3.4-3 1.014.598 2.194.917 3.4.917h25.06L33 78.998 6.4 79z" transform="translate(-264.000000, -780.000000) translate(264.000000, 780.000000)"/>
                <path fill="#1A335E" d="M20.392 54.495c.28.321.683.505 1.108.505.425 0 .829-.184 1.108-.505l12.026-13.804c.382-.436.473-1.057.235-1.585-.24-.53-.764-.869-1.342-.868h-5.148v-16.76c0-.392-.156-.769-.432-1.046S27.296 20 26.905 20H16.097c-.39 0-.766.155-1.042.432s-.432.654-.432 1.046v16.76h-5.15c-.578 0-1.103.339-1.342.868-.238.528-.147 1.149.235 1.585l12.026 13.804zm-4.297-13.3c.39 0 .765-.155 1.041-.433.276-.277.43-.654.43-1.046v-16.76h7.866v16.76c0 .817.66 1.48 1.473 1.48h3.375L21.5 51.275l-8.78-10.08h3.375z" transform="translate(-264.000000, -780.000000) translate(264.000000, 780.000000)"/>
                <path fill="#1A335E" d="M33.533 51.13c-.814 0-1.474.696-1.474 1.553v4.655c-.003.856-.664 1.549-1.477 1.546H12.415c-.814 0-1.473-.696-1.473-1.552v-4.643c.05-.585-.22-1.15-.694-1.458-.474-.308-1.073-.308-1.548 0-.475.309-.743.873-.694 1.458v4.655c.002 2.57 1.978 4.653 4.418 4.656h18.158c2.44-.003 4.416-2.086 4.418-4.656v-4.655c.002-.412-.151-.807-.427-1.1-.275-.292-.649-.457-1.04-.459z" transform="translate(-264.000000, -780.000000) translate(264.000000, 780.000000)"/>
                <path fill="#D84E55" d="M78.717 79.357l-3.32-19.09c-.328-1.909-1.652-3.499-3.474-4.175-1.822-.675-3.868-.335-5.37.894-.76-1.677-2.322-2.856-4.148-3.134-1.827-.278-3.67.385-4.898 1.76-1.902-2.061-5.068-2.341-7.305-.646l-2.768-15.924c-.434-2.457-2.486-4.308-4.985-4.494V6.388C42.444 2.862 39.574.004 36.031 0H6.416C2.874.004.004 2.862 0 6.388V75.2c.004 3.526 2.874 6.384 6.416 6.388h28.982l7.702 11.3C46.623 98.552 52.84 102 59.532 102c1.125 0 2.249-.097 3.358-.289 5.075-.874 9.594-3.72 12.562-7.911 2.968-4.192 4.142-9.386 3.263-14.439l.002-.004zM6.417 2.956H36.03c1.854.002 3.375 1.46 3.45 3.303-1.029-.659-2.226-1.01-3.45-1.01H6.416c-1.223 0-2.42.351-3.447 1.01.074-1.843 1.595-3.3 3.447-3.303zM2.96 11.638c.002-1.9 1.548-3.438 3.455-3.44h29.615c1.908 0 3.455 1.54 3.457 3.44v23.527c-2.088 1.103-3.23 3.416-2.83 5.735l5.372 30.898-3.813-5.462c-1.438-2.102-4.052-3.01-6.354-2.21-1.615.551-2.88 1.82-3.421 3.433-.542 1.612-.298 3.383.658 4.791l.717 1.054h-23.4c-1.908-.002-3.454-1.541-3.456-3.44V11.638zM6.416 78.64c-1.852-.004-3.373-1.46-3.447-3.304 1.028.66 2.224 1.01 3.447 1.01h25.411l1.562 2.292-26.973.002zm66.617 13.456c-3.183 4.5-8.422 7.108-13.948 6.944-5.525-.163-10.6-3.077-13.509-7.757l-.017-.023-.015-.028-8.166-11.985-3.54-5.192-2.287-3.357c-.44-.65-.551-1.467-.298-2.209.253-.742.84-1.324 1.587-1.572 1.022-.355 2.255.1 2.938 1.097l7.627 10.943c.011.015.025.028.038.043.034.048.073.092.114.133.025.027.052.053.078.078.04.036.084.069.128.099.03.022.061.045.094.066.05.028.1.053.152.076.03.013.06.03.09.042.082.031.167.055.253.07.087.016.174.024.262.025h.108c.035 0 .098 0 .145-.014h.021c.058-.012.115-.028.172-.047.038-.013.078-.02.114-.036.036-.015.08-.04.12-.06.04-.022.1-.05.145-.08.007-.005.014-.01.021-.012.029-.02.05-.045.076-.066.045-.033.087-.069.126-.107.035-.034.063-.072.094-.108.031-.035.06-.073.086-.112.027-.04.052-.083.074-.127.02-.04.044-.08.063-.123.019-.044.03-.09.044-.135.016-.045.03-.09.04-.137 0-.047.013-.097.019-.144.005-.048.011-.091.011-.139 0-.056-.005-.111-.011-.167v-.099L39.57 40.42c-.153-.878.177-1.771.864-2.342.688-.571 1.629-.734 2.47-.426.84.307 1.452 1.037 1.605 1.916l3.594 20.693.763 4.343c.015.095.04.187.076.276.01.026.025.049.036.076.026.059.056.116.088.172.017.027.038.052.057.078.034.048.071.095.11.139.023.025.046.048.071.07.041.04.084.077.13.112l.084.059c.047.03.096.057.147.081.032.018.062.033.095.046.052.02.106.039.16.053.034.01.067.021.103.029.057.01.115.018.173.022h.126c.085 0 .17-.006.254-.02.388-.067.733-.285.96-.605.226-.321.315-.718.247-1.104l-.763-4.344c-.152-.878.177-1.77.865-2.341.688-.571 1.629-.733 2.47-.426.84.308 1.451 1.038 1.604 1.917l.762 4.343c.018.094.043.186.077.276.011.026.026.051.038.078.025.058.054.114.086.168.019.029.038.054.059.082.033.048.069.093.108.135.023.025.047.05.073.072.04.04.083.076.128.11.028.021.055.04.085.059.047.032.096.06.147.084l.094.043c.053.022.108.04.164.055.031.01.064.02.097.027.06.012.12.02.18.025h.132c.086 0 .172-.007.256-.021.388-.068.732-.285.958-.606.226-.32.315-.717.247-1.103l-.53-3.058c-.236-1.358.677-2.649 2.04-2.884 1.362-.229 2.655.679 2.896 2.033l.573 3.313c.139.802.905 1.34 1.71 1.2.806-.138 1.346-.901 1.207-1.703-.236-1.358.678-2.65 2.042-2.884 1.364-.235 2.66.676 2.896 2.033l3.314 19.087c.759 4.283-.237 8.69-2.765 12.238z" transform="translate(-264.000000, -780.000000) translate(264.000000, 780.000000)"/>
            </g>
        </g>
    </g>
</svg>
