<svg xmlns="http://www.w3.org/2000/svg" width="24" height="24" viewBox="0 0 24 24">
    <g fill="none" fill-rule="evenodd">
        <path d="M0 0h24v24H0z"/>
        <path fill="#3E3E52" fill-rule="nonzero" d="M10.5 10.97a.5.5 0 1 0-1 0V16a.5.5 0 1 0 1 0v-5.03zm-3 0a.5.5 0 1 0-1 0V16a.5.5 0 1 0 1 0v-5.03zM8.986 9.5a.5.5 0 1 0-1 0V16a.5.5 0 1 0 1 0V9.5zM11 18v-1H6v1h5zm0 2H6V8h5v12zM9 7V4.5a.5.5 0 1 0-1 0V7H6a1 1 0 0 0-1 1v13h7V8a1 1 0 0 0-1-1H9zm4 13H3.5a.5.5 0 1 0 0 1h17a.5.5 0 1 0 0-1H19V6.869a1 1 0 0 0-1.555-.833l-4 2.667a1 1 0 0 0-.445.832V20zm1 0V9.535l4-2.666V20h-4zm2.509-10H15.49a.496.496 0 0 0-.491.5c0 .276.22.5.491.5h1.018a.496.496 0 0 0 .491-.5c0-.276-.22-.5-.491-.5zm0 2H15.49a.496.496 0 0 0-.491.5c0 .276.22.5.491.5h1.018a.496.496 0 0 0 .491-.5c0-.276-.22-.5-.491-.5zm0 2H15.49a.496.496 0 0 0-.491.5c0 .276.22.5.491.5h1.018a.496.496 0 0 0 .491-.5c0-.276-.22-.5-.491-.5zm0 2H15.49a.496.496 0 0 0-.491.5c0 .276.22.5.491.5h1.018a.496.496 0 0 0 .491-.5c0-.276-.22-.5-.491-.5zm0 2H15.49a.496.496 0 0 0-.491.5c0 .276.22.5.491.5h1.018a.496.496 0 0 0 .491-.5c0-.276-.22-.5-.491-.5z"/>
    </g>
</svg>
