<svg xmlns="http://www.w3.org/2000/svg" width="24" height="25" viewBox="0 0 24 25">
    <path fill="#000" fill-rule="nonzero" d="M19.252 3h-8.345a2 2 0 0 0-1.733 1h11.81a2 2 0 0 0-1.732-1zm-8.345-1h8.345a3 3 0 0 1 3 3H7.907a3 3 0 0 1 3-3zM7.565 19h4v1.5a1.5 1.5 0 0 1-1.5 1.5h-1a1.5 1.5 0 0 1-1.5-1.5V19zm11 0h4v1.5a1.5 1.5 0 0 1-1.5 1.5h-1a1.5 1.5 0 0 1-1.5-1.5V19zm-10 1v.5a.5.5 0 0 0 .5.5h1a.5.5 0 0 0 .5-.5V20h-2zm11 0v.5a.5.5 0 0 0 .5.5h1a.5.5 0 0 0 .5-.5V20h-2zm-11-6v5h13v-5h-13zm-1-1h15v6a1 1 0 0 1-1 1h-13a1 1 0 0 1-1-1v-6zm11.52 4.993a1.5 1.5 0 1 1 0-3 1.5 1.5 0 0 1 0 3zm0-1a.5.5 0 1 0 0-1 .5.5 0 0 0 0 1zm-8.02 1a1.5 1.5 0 1 1 0-3 1.5 1.5 0 0 1 0 3zm0-1a.5.5 0 1 0 0-1 .5.5 0 0 0 0 1zM8.878 5l-.26 7.483c0 .293.224.517.5.517h11.894a.504.504 0 0 0 .5-.517L21.252 5H8.878zm0-1h12.374a1 1 0 0 1 1 .965l.26 7.483a1.5 1.5 0 0 1-1.5 1.552H9.118a1.5 1.5 0 0 1-1.499-1.552l.26-7.483a1 1 0 0 1 1-.965zm12.687 8l.815-3c.123 2.147.185 3.482.185 4.004V14h-1v-2zm-14.79 1.333a1.5 1.5 0 0 1-.633-.364l-.885-.852-.168 2.484 1.687 1.438v3.76a.5.5 0 0 1-.454-.497v-2.105a.5.5 0 0 0-.176-.38l-1.14-.973-.138 2.044a1.5 1.5 0 0 1-.02.162l-.46 2.584a.5.5 0 0 1-.985-.175l.46-2.584a.5.5 0 0 0 .007-.054l.377-5.59-.913.908a.5.5 0 0 0-.105.154l-1.27 2.902a.5.5 0 0 1-.917-.401l1.27-2.902a1.5 1.5 0 0 1 .317-.462l1.85-1.84.003-.003a.5.5 0 0 1 .825.19l1.484 1.429-.015.423v.704zM5.407 9.717c-.67.167-1.411-.494-1.578-1.164a1.25 1.25 0 0 1 2.426-.605c.167.67-.178 1.602-.848 1.77zm8.852 7.783a.5.5 0 1 1 0-1h2a.5.5 0 1 1 0 1h-2zm-5.693-5.488v2h-1v-.997c0-.522.062-1.857.186-4.004l.814 3z"/>
</svg>
