<svg id="Layer_1" data-name="Layer 1" xmlns="http://www.w3.org/2000/svg" viewBox="0 0 40 40"><defs><style>.cls-1{fill:#f38582;}.cls-2{fill:#452062;}</style></defs><title>Total &amp;amp; Partial Disability</title><g id="tsZBGj"><path class="cls-1" d="M17.51,3.32c1.76.75,1.74,1.33,1.69,2.83s0,2.26-.55,2.21a3.37,3.37,0,0,1-3.2-2.43,3,3,0,0,1,.24-2c.35-.71-.09-.34.69-.61h1.13Z"/><path class="cls-1" d="M19.2,15.19h5.69c1.21,0,1.94.24,1.25,1.2a1.83,1.83,0,0,1-1.25.63,18.75,18.75,0,0,1-2.12,0c-.27,0-3.29-.16-3.57-.16,0,.7.57,1.55.57,2.26.33,0-.28.56,0,.56,1.83,0-1.27.58.56.57,1.34,0,6.78-1.13,9.61,2.26,1.27,2.45,1.5,4.36,2.83,6.78.09.16.49.4.56.57.47,1.05.89,1.23,0,1.69S32.22,32,31.64,31a53.93,53.93,0,0,1-2.83-5.09c-.66-1.52-.75-2.34-2.43-2.21-2.38.17-4.79.05-7.18,0a2.56,2.56,0,0,1-2.91-2.58q-.36-4.65-.59-9.31c-.09-1.67-1.29-1.64.68-1.77,1.46-.08,2.11.19,2.26,1.7C18.72,12.62,19.13,14.24,19.2,15.19Z"/></g><g id="tsZBGj-2" data-name="tsZBGj"><path class="cls-2" d="M16.14,10.06A3.65,3.65,0,0,1,15,3l.61-.21h1.33l.1,0c2,.84,2.84,2,2.79,3.74a3.62,3.62,0,0,1-3.38,3.51Zm-.36-6.17L15.35,4a2.54,2.54,0,0,0-1.61,2.9,2.5,2.5,0,0,0,2.6,2A2.47,2.47,0,0,0,18.68,6.5c0-1-.3-1.87-2-2.61Z"/><path class="cls-2" d="M31.69,33.2a2.62,2.62,0,0,1-2.24-1.36L29,31a36.55,36.55,0,0,1-2.12-4,2.28,2.28,0,0,0-2.68-1.62c-1.73.13-3.49.1-5.19.07l-2,0a3.11,3.11,0,0,1-3.47-3.11c-.24-3.12-.44-6.26-.6-9.32-.1-2,1.22-3.22,3.52-3.36a3.22,3.22,0,0,1,3.4,3c.05.56.09,1.13.14,1.73l0,.35h1.13c1.28,0,2.55,0,3.81,0a2.09,2.09,0,0,1,1.88,1.13,1.91,1.91,0,0,1-.17,2,2.35,2.35,0,0,1-1.68.86c-1.07.06-2.16.05-3.21,0H20.27v.95h5.82a3.59,3.59,0,0,1,3.47,2c.88,1.72,1.83,3.43,2.75,5.1.4.72.8,1.44,1.19,2.16q.15.27.27.54a2.55,2.55,0,0,1-1,3.37A2.37,2.37,0,0,1,31.69,33.2Zm-7.15-8.93a3.32,3.32,0,0,1,3.34,2.31,36.31,36.31,0,0,0,2.05,3.84c.17.28.34.57.5.86a1.37,1.37,0,0,0,1.84.64A1.42,1.42,0,0,0,32.74,30c-.07-.15-.15-.31-.23-.46-.39-.72-.79-1.44-1.19-2.16-.92-1.67-1.88-3.39-2.77-5.12a2.45,2.45,0,0,0-2.45-1.43c-1.69,0-3.37,0-5.06,0h-.45l-.61,0-.84-.06V17.62h2.58c1,0,2.1,0,3.14,0a1.25,1.25,0,0,0,.82-.41.75.75,0,0,0,.08-.81,1,1,0,0,0-.88-.51c-1.26,0-2.52,0-3.8,0H18.91l-.11-1.39c0-.6-.08-1.16-.14-1.71a2.06,2.06,0,0,0-2.2-1.95c-1.17.07-2.54.51-2.46,2.18.15,3,.35,6.17.6,9.29.11,1.42.83,2.05,2.34,2.06l2,0c1.67,0,3.4.06,5.08-.07Z"/></g><path class="cls-2" d="M15.67,37.23a8.19,8.19,0,0,1-4.41-15.1l.61.95a7.06,7.06,0,1,0,10.66,4.24l1.09-.27a8.35,8.35,0,0,1,.25,2A8.2,8.2,0,0,1,15.67,37.23Z"/><path class="cls-2" d="M15.67,37.23a8.19,8.19,0,0,1-4.41-15.1l.61.95a7.06,7.06,0,1,0,10.66,4.24l1.09-.27a8.35,8.35,0,0,1,.25,2A8.2,8.2,0,0,1,15.67,37.23Z"/><path class="cls-2" d="M11.15,20.77H10V15.68a1.13,1.13,0,0,0-.44-.82c-.35-.24-1.09-.43-2.63.09l-.36-1.07c1.61-.54,2.84-.52,3.66.07a2.24,2.24,0,0,1,.9,1.73Z"/><polygon class="cls-2" points="34.75 35.96 28.69 35.96 25.35 29.95 26.34 29.4 29.36 34.83 34.75 34.83 34.75 35.96"/></svg>