<svg xmlns="http://www.w3.org/2000/svg" xmlns:xlink="http://www.w3.org/1999/xlink" width="20" height="14" viewBox="0 0 20 14">
    <defs>
        <path id="prefix__a" d="M0 0H24V24H0z"/>
    </defs>
    <g fill="none" fill-rule="evenodd" transform="translate(-2 -5)">
        <mask id="prefix__b" fill="#fff">
            <use xlink:href="#prefix__a"/>
        </mask>
        <path fill="#3E3E52" d="M4 18c-.109 0-.209-.029-.307-.062l5.637-5.513 1.809 1.642c.576.524 1.457.52 2.028-.009l1.658-1.537 5.572 5.395c-.122.053-.255.084-.397.084H4zm-.963-.819C3.025 17.12 3 17.064 3 17V7c0-.097.029-.186.055-.274l5.534 5.025-5.552 5.43zM20 6c.114 0 .219.03.321.065l-7.834 7.259c-.19.176-.484.178-.676.003L3.79 6.042C3.86 6.027 3.926 6 4 6h16zm-4.44 5.84l5.406-5.009c.01.057.034.109.034.169v10c0 .032-.016.059-.019.09l-5.421-5.25zM20 5H4c-1.104 0-2 .896-2 2v10c0 1.104.896 2 2 2h16c1.104 0 2-.896 2-2V7c0-1.104-.896-2-2-2z" mask="url(#prefix__b)"/>
    </g>
</svg>
