<!-- Generated by IcoMoon.io -->
<svg version="1.1" xmlns="http://www.w3.org/2000/svg" width="46" height="32" viewBox="0 0 46 32">
<title>review</title>
<path fill="#7e7e8c" d="M30.4 29.335c0 0.091-0.069 0.155-0.128 0.155h-28.247c-0.055 0-0.119-0.064-0.119-0.155l0.091-3.79c9.371-3.438 10.99-4.901 11.337-5.975 0.028-0.076 0.045-0.164 0.046-0.255v-1.459c0-0.229-0.091-0.443-0.265-0.608-0.955-0.972-1.669-2.183-2.044-3.536l-0.014-0.057c-0.065-0.203-0.194-0.371-0.362-0.482l-0.003-0.002c-0.391-0.263-0.645-0.703-0.645-1.203 0-0.365 0.135-0.698 0.358-0.952l-0.001 0.002c0.127-0.146 0.205-0.338 0.206-0.548v-3.26c-0.005-3.131 1.915-4.786 5.541-4.786 3.675 0 5.541 1.609 5.541 4.786v3.259c0 0.201 0.073 0.393 0.206 0.549 0.223 0.252 0.359 0.586 0.359 0.951 0 0.5-0.255 0.94-0.642 1.199l-0.005 0.003c-0.172 0.114-0.301 0.281-0.364 0.478l-0.002 0.006c-0.425 1.463-1.143 2.697-2.057 3.593-0.16 0.154-0.26 0.369-0.261 0.608v1.458c0 0.087 0.009 0.174 0.037 0.256 0.357 1.074 1.97 2.542 11.438 6.126v3.639zM31.008 23.904c-8.471-3.109-9.934-4.421-10.181-4.777v-0.928c0.963-1.053 1.708-2.324 2.152-3.728l0.019-0.071c0.591-0.488 1.002-1.177 1.127-1.961l0.002-0.018c0.022-0.138 0.034-0.297 0.034-0.459 0-0.666-0.212-1.282-0.571-1.786l0.006 0.009v-2.976c0-4.165-2.715-6.555-7.451-6.555-4.663 0-7.442 2.45-7.442 6.555v2.976c-0.353 0.494-0.565 1.111-0.565 1.776 0 0.162 0.013 0.321 0.037 0.476l-0.002-0.017c0.128 0.802 0.538 1.491 1.124 1.975l0.005 0.004c0.48 1.486 1.221 2.789 2.171 3.799v0.928c-0.274 0.411-1.829 1.71-10.181 4.777-0.751 0.265-1.281 0.962-1.294 1.786l-0 0.001v3.643c0 1.061 0.914 1.92 2.025 1.92h28.251c0.014 0 0.030 0.001 0.047 0.001 1.073 0 1.946-0.853 1.978-1.918l0-0.003v-3.643c-0.018-0.823-0.546-1.518-1.28-1.783l-0.014-0.004z"></path>
<path fill="#7e7e8c" d="M44.544 25.221c-6.345-2.277-7.602-3.273-7.84-3.534v-0.562c0.732-0.799 1.304-1.757 1.657-2.815l0.016-0.055c0.478-0.402 0.81-0.964 0.912-1.603l0.002-0.015c0.018-0.113 0.028-0.242 0.028-0.374 0-0.533-0.166-1.028-0.449-1.435l0.005 0.008v-2.217c0-3.273-2.263-5.23-6.043-5.23-3.785 0-6.043 1.957-6.043 5.23v2.222c-0.276 0.396-0.44 0.887-0.44 1.417 0 0.134 0.011 0.265 0.031 0.394l-0.002-0.014c0.091 0.622 0.421 1.198 0.91 1.618 0.421 1.248 1.093 2.331 1.947 3.145 0.178 0.164 0.417 0.264 0.68 0.264 0.255 0 0.488-0.095 0.665-0.252l-0.001 0.001c0.176-0.155 0.286-0.381 0.286-0.632 0-0.243-0.103-0.462-0.268-0.615l-0-0c-0.723-0.718-1.265-1.616-1.553-2.622l-0.010-0.043c-0.064-0.202-0.193-0.368-0.362-0.478l-0.003-0.002c-0.214-0.14-0.364-0.362-0.406-0.621l-0.001-0.005c-0.005-0.036-0.008-0.078-0.008-0.121 0-0.23 0.086-0.439 0.228-0.598l-0.001 0.001c0.133-0.146 0.215-0.342 0.215-0.556 0-0.001 0-0.001 0-0.002v0-2.501c0-2.263 1.431-3.461 4.137-3.461 2.743 0 4.137 1.166 4.137 3.461v2.501c0 0.201 0.073 0.398 0.215 0.558 0.183 0.206 0.261 0.457 0.219 0.718-0.041 0.262-0.19 0.483-0.399 0.62l-0.003 0.002c-0.175 0.113-0.305 0.28-0.369 0.478l-0.002 0.006c-0.299 1.048-0.839 1.946-1.559 2.665l-0 0c-0.167 0.154-0.272 0.373-0.274 0.617v1.116c0 0.091 0.018 0.178 0.046 0.261 0.274 0.814 1.216 1.92 8.951 4.631l0.11 2.697h-8.731c-0.521 0-0.946 0.398-0.946 0.887s0.425 0.882 0.951 0.882h8.727c0.992 0 1.797-0.754 1.797-1.678v-2.789c-0.018-0.728-0.491-1.34-1.145-1.564l-0.012-0.004z"></path>
</svg>
