<svg xmlns="http://www.w3.org/2000/svg" width="32" height="24" viewBox="0 0 32 24">
    <path fill="#D84E55" fill-rule="nonzero" d="M2.096 21.292a.89.89 0 0 0 .877.902h.584a.89.89 0 0 0 .877-.902v-1.394H2.096v1.394zm4.09-3.2v3.2C6.187 22.787 5.01 24 3.558 24h-.584c-1.452 0-2.63-1.213-2.63-2.708v-3.2h5.844zm25.494-.024v3.2c0 1.495-1.177 2.708-2.63 2.708h-.583c-1.453 0-2.63-1.213-2.63-2.709v-3.2h5.843zm-1.753 1.806H27.59v1.393a.89.89 0 0 0 .877.903h.584a.89.89 0 0 0 .876-.903v-1.393zm-5.124-8.923c1.565 0 2.824 1.334 2.824 2.967 0 1.632-1.26 2.966-2.824 2.966-1.566 0-2.825-1.334-2.825-2.966 0-1.633 1.26-2.967 2.825-2.967zm-17.57 0c1.566 0 2.825 1.334 2.825 2.967 0 1.632-1.259 2.966-2.824 2.966S4.41 15.55 4.41 13.918c0-1.633 1.259-2.967 2.824-2.967zm11.696 3.167a.89.89 0 0 1 .876.902.89.89 0 0 1-.876.903h-5.843a.89.89 0 0 1-.877-.903.89.89 0 0 1 .877-.902h5.843zm5.874-1.361c-.586 0-1.072.514-1.072 1.16 0 .647.486 1.161 1.072 1.161.586 0 1.07-.514 1.07-1.16 0-.647-.484-1.161-1.07-1.161zm-17.57 0c-.585 0-1.07.514-1.07 1.16 0 .647.485 1.161 1.07 1.161.587 0 1.072-.514 1.072-1.16 0-.647-.485-1.161-1.071-1.161zM16 7.588c5.297 0 9.445.336 12.457 1.013a.903.903 0 0 1 .67 1.075.877.877 0 0 1-1.044.69c-2.868-.646-6.9-.972-12.083-.972-5.182 0-9.215.326-12.083.971a.877.877 0 0 1-1.043-.689.903.903 0 0 1 .669-1.075C6.555 7.924 10.703 7.588 16 7.588zm14.267-1.827a.872.872 0 0 1 1.098.592.908.908 0 0 1-.576 1.131l-1.002.322a.872.872 0 0 1-1.098-.592.908.908 0 0 1 .575-1.131zm-28.526 0l1.002.322c.462.149.72.655.575 1.13a.872.872 0 0 1-1.098.593l-1.002-.322a.908.908 0 0 1-.575-1.13.872.872 0 0 1 1.098-.593zm27.189 4.772l-.958-.25-1.323-4.456c-.64-2.153-2.505-3.674-4.686-3.82a88.8 88.8 0 0 0-11.926 0c-2.181.146-4.046 1.667-4.686 3.82l-1.323 4.456-.958.25c-.88.23-1.34.752-1.316 1.208l.332 6.42c-.008-.164.067-.105.28-.105h27.268c.213 0 .288-.06.28.105l.332-6.42c.024-.456-.436-.979-1.316-1.208zm3.067 1.304l-.333 6.42c-.046.886-.955 1.605-2.03 1.605H2.366c-1.075 0-1.984-.719-2.03-1.605l-.333-6.42C-.07 10.409 1.04 9.199 2.64 8.782L3.675 5.3C4.527 2.429 7.015.4 9.923.204a90.503 90.503 0 0 1 12.154 0C24.985.4 27.473 2.428 28.325 5.3l1.035 3.483c1.6.417 2.71 1.627 2.637 3.055z"/>
</svg>
